<?xml version="1.0" encoding="UTF-8" standalone="no"?>
<!DOCTYPE svg PUBLIC "-//W3C//DTD SVG 1.1//EN"
 "http://www.w3.org/Graphics/SVG/1.1/DTD/svg11.dtd">
<!-- Generated by graphviz version 2.38.0 (20140413.2041)
 -->
<!-- Title: Tree Pages: 1 -->
<svg width="556pt" height="622pt"
 viewBox="0.00 0.00 556.04 622.40" xmlns="http://www.w3.org/2000/svg" xmlns:xlink="http://www.w3.org/1999/xlink">
<g id="graph0" class="graph" transform="scale(1 1) rotate(0) translate(4 618.4)">
<title>Tree</title>
<polygon fill="white" stroke="none" points="-4,4 -4,-618.4 552.036,-618.4 552.036,4 -4,4"/>
<!-- 0 -->
<g id="node1" class="node"><title>0</title>
<polygon fill="none" stroke="black" points="297.804,-614.5 171.731,-614.5 171.731,-539.1 297.804,-539.1 297.804,-614.5"/>
<text text-anchor="middle" x="234.768" y="-597.8" font-family="Times,serif" font-size="14.00">X[3] &lt;= 0.8</text>
<text text-anchor="middle" x="234.768" y="-581" font-family="Times,serif" font-size="14.00">gini = 0.6647</text>
<text text-anchor="middle" x="234.768" y="-564.2" font-family="Times,serif" font-size="14.00">samples = 112</text>
<text text-anchor="middle" x="234.768" y="-547.4" font-family="Times,serif" font-size="14.00">value = [37, 34, 41]</text>
</g>
<!-- 1 -->
<g id="node2" class="node"><title>1</title>
<polygon fill="none" stroke="black" points="223.804,-495.001 111.731,-495.001 111.731,-436.199 223.804,-436.199 223.804,-495.001"/>
<text text-anchor="middle" x="167.768" y="-478.2" font-family="Times,serif" font-size="14.00">gini = 0.0</text>
<text text-anchor="middle" x="167.768" y="-461.4" font-family="Times,serif" font-size="14.00">samples = 37</text>
<text text-anchor="middle" x="167.768" y="-444.6" font-family="Times,serif" font-size="14.00">value = [37, 0, 0]</text>
</g>
<!-- 0&#45;&gt;1 -->
<g id="edge1" class="edge"><title>0&#45;&gt;1</title>
<path fill="none" stroke="black" d="M212.271,-539.134C205.312,-527.792 197.64,-515.287 190.655,-503.902"/>
<polygon fill="black" stroke="black" points="193.439,-501.748 185.226,-495.055 187.473,-505.409 193.439,-501.748"/>
<text text-anchor="middle" x="179.404" y="-515.167" font-family="Times,serif" font-size="14.00">True</text>
</g>
<!-- 2 -->
<g id="node3" class="node"><title>2</title>
<polygon fill="none" stroke="black" points="361.304,-503.3 242.231,-503.3 242.231,-427.9 361.304,-427.9 361.304,-503.3"/>
<text text-anchor="middle" x="301.768" y="-486.6" font-family="Times,serif" font-size="14.00">X[3] &lt;= 1.65</text>
<text text-anchor="middle" x="301.768" y="-469.8" font-family="Times,serif" font-size="14.00">gini = 0.4956</text>
<text text-anchor="middle" x="301.768" y="-453" font-family="Times,serif" font-size="14.00">samples = 75</text>
<text text-anchor="middle" x="301.768" y="-436.2" font-family="Times,serif" font-size="14.00">value = [0, 34, 41]</text>
</g>
<!-- 0&#45;&gt;2 -->
<g id="edge2" class="edge"><title>0&#45;&gt;2</title>
<path fill="none" stroke="black" d="M257.264,-539.134C262.623,-530.401 268.404,-520.978 273.969,-511.909"/>
<polygon fill="black" stroke="black" points="276.97,-513.709 279.217,-503.355 271.004,-510.048 276.97,-513.709"/>
<text text-anchor="middle" x="285.04" y="-523.467" font-family="Times,serif" font-size="14.00">False</text>
</g>
<!-- 3 -->
<g id="node4" class="node"><title>3</title>
<polygon fill="none" stroke="black" points="291.804,-392.1 179.731,-392.1 179.731,-316.7 291.804,-316.7 291.804,-392.1"/>
<text text-anchor="middle" x="235.768" y="-375.4" font-family="Times,serif" font-size="14.00">X[2] &lt;= 4.95</text>
<text text-anchor="middle" x="235.768" y="-358.6" font-family="Times,serif" font-size="14.00">gini = 0.1928</text>
<text text-anchor="middle" x="235.768" y="-341.8" font-family="Times,serif" font-size="14.00">samples = 37</text>
<text text-anchor="middle" x="235.768" y="-325" font-family="Times,serif" font-size="14.00">value = [0, 33, 4]</text>
</g>
<!-- 2&#45;&gt;3 -->
<g id="edge3" class="edge"><title>2&#45;&gt;3</title>
<path fill="none" stroke="black" d="M279.607,-427.934C274.383,-419.291 268.751,-409.973 263.322,-400.989"/>
<polygon fill="black" stroke="black" points="266.15,-398.903 257.982,-392.155 260.16,-402.524 266.15,-398.903"/>
</g>
<!-- 10 -->
<g id="node11" class="node"><title>10</title>
<polygon fill="none" stroke="black" points="422.804,-392.1 310.731,-392.1 310.731,-316.7 422.804,-316.7 422.804,-392.1"/>
<text text-anchor="middle" x="366.768" y="-375.4" font-family="Times,serif" font-size="14.00">X[2] &lt;= 4.85</text>
<text text-anchor="middle" x="366.768" y="-358.6" font-family="Times,serif" font-size="14.00">gini = 0.0512</text>
<text text-anchor="middle" x="366.768" y="-341.8" font-family="Times,serif" font-size="14.00">samples = 38</text>
<text text-anchor="middle" x="366.768" y="-325" font-family="Times,serif" font-size="14.00">value = [0, 1, 37]</text>
</g>
<!-- 2&#45;&gt;10 -->
<g id="edge10" class="edge"><title>2&#45;&gt;10</title>
<path fill="none" stroke="black" d="M323.593,-427.934C328.738,-419.291 334.284,-409.973 339.631,-400.989"/>
<polygon fill="black" stroke="black" points="342.783,-402.538 344.89,-392.155 336.767,-398.958 342.783,-402.538"/>
</g>
<!-- 4 -->
<g id="node5" class="node"><title>4</title>
<polygon fill="none" stroke="black" points="167.804,-272.601 55.7312,-272.601 55.7312,-213.799 167.804,-213.799 167.804,-272.601"/>
<text text-anchor="middle" x="111.768" y="-255.8" font-family="Times,serif" font-size="14.00">gini = 0.0</text>
<text text-anchor="middle" x="111.768" y="-239" font-family="Times,serif" font-size="14.00">samples = 32</text>
<text text-anchor="middle" x="111.768" y="-222.2" font-family="Times,serif" font-size="14.00">value = [0, 32, 0]</text>
</g>
<!-- 3&#45;&gt;4 -->
<g id="edge4" class="edge"><title>3&#45;&gt;4</title>
<path fill="none" stroke="black" d="M194.133,-316.734C180.488,-304.718 165.362,-291.398 151.835,-279.485"/>
<polygon fill="black" stroke="black" points="153.897,-276.637 144.079,-272.655 149.271,-281.891 153.897,-276.637"/>
</g>
<!-- 5 -->
<g id="node6" class="node"><title>5</title>
<polygon fill="none" stroke="black" points="291.304,-280.9 186.231,-280.9 186.231,-205.5 291.304,-205.5 291.304,-280.9"/>
<text text-anchor="middle" x="238.768" y="-264.2" font-family="Times,serif" font-size="14.00">X[0] &lt;= 6.05</text>
<text text-anchor="middle" x="238.768" y="-247.4" font-family="Times,serif" font-size="14.00">gini = 0.32</text>
<text text-anchor="middle" x="238.768" y="-230.6" font-family="Times,serif" font-size="14.00">samples = 5</text>
<text text-anchor="middle" x="238.768" y="-213.8" font-family="Times,serif" font-size="14.00">value = [0, 1, 4]</text>
</g>
<!-- 3&#45;&gt;5 -->
<g id="edge5" class="edge"><title>3&#45;&gt;5</title>
<path fill="none" stroke="black" d="M236.775,-316.734C237,-308.541 237.242,-299.741 237.477,-291.196"/>
<polygon fill="black" stroke="black" points="240.982,-291.047 237.758,-280.955 233.985,-290.855 240.982,-291.047"/>
</g>
<!-- 6 -->
<g id="node7" class="node"><title>6</title>
<polygon fill="none" stroke="black" points="167.304,-169.7 62.2312,-169.7 62.2312,-94.2997 167.304,-94.2997 167.304,-169.7"/>
<text text-anchor="middle" x="114.768" y="-153" font-family="Times,serif" font-size="14.00">X[1] &lt;= 2.45</text>
<text text-anchor="middle" x="114.768" y="-136.2" font-family="Times,serif" font-size="14.00">gini = 0.5</text>
<text text-anchor="middle" x="114.768" y="-119.4" font-family="Times,serif" font-size="14.00">samples = 2</text>
<text text-anchor="middle" x="114.768" y="-102.6" font-family="Times,serif" font-size="14.00">value = [0, 1, 1]</text>
</g>
<!-- 5&#45;&gt;6 -->
<g id="edge6" class="edge"><title>5&#45;&gt;6</title>
<path fill="none" stroke="black" d="M197.133,-205.534C186.602,-196.26 175.19,-186.21 164.311,-176.63"/>
<polygon fill="black" stroke="black" points="166.322,-173.737 156.504,-169.755 161.696,-178.991 166.322,-173.737"/>
</g>
<!-- 9 -->
<g id="node10" class="node"><title>9</title>
<polygon fill="none" stroke="black" points="291.304,-161.401 186.231,-161.401 186.231,-102.599 291.304,-102.599 291.304,-161.401"/>
<text text-anchor="middle" x="238.768" y="-144.6" font-family="Times,serif" font-size="14.00">gini = 0.0</text>
<text text-anchor="middle" x="238.768" y="-127.8" font-family="Times,serif" font-size="14.00">samples = 3</text>
<text text-anchor="middle" x="238.768" y="-111" font-family="Times,serif" font-size="14.00">value = [0, 0, 3]</text>
</g>
<!-- 5&#45;&gt;9 -->
<g id="edge9" class="edge"><title>5&#45;&gt;9</title>
<path fill="none" stroke="black" d="M238.768,-205.534C238.768,-194.641 238.768,-182.676 238.768,-171.66"/>
<polygon fill="black" stroke="black" points="242.268,-171.455 238.768,-161.455 235.268,-171.455 242.268,-171.455"/>
</g>
<!-- 7 -->
<g id="node8" class="node"><title>7</title>
<polygon fill="none" stroke="black" points="105.304,-58.6014 0.231183,-58.6014 0.231183,0.201379 105.304,0.201379 105.304,-58.6014"/>
<text text-anchor="middle" x="52.7678" y="-41.8" font-family="Times,serif" font-size="14.00">gini = 0.0</text>
<text text-anchor="middle" x="52.7678" y="-25" font-family="Times,serif" font-size="14.00">samples = 1</text>
<text text-anchor="middle" x="52.7678" y="-8.2" font-family="Times,serif" font-size="14.00">value = [0, 0, 1]</text>
</g>
<!-- 6&#45;&gt;7 -->
<g id="edge7" class="edge"><title>6&#45;&gt;7</title>
<path fill="none" stroke="black" d="M92.209,-94.3237C86.7558,-85.4578 80.9253,-75.9786 75.4657,-67.1024"/>
<polygon fill="black" stroke="black" points="78.3778,-65.1563 70.1574,-58.4722 72.4154,-68.8237 78.3778,-65.1563"/>
</g>
<!-- 8 -->
<g id="node9" class="node"><title>8</title>
<polygon fill="none" stroke="black" points="229.304,-58.6014 124.231,-58.6014 124.231,0.201379 229.304,0.201379 229.304,-58.6014"/>
<text text-anchor="middle" x="176.768" y="-41.8" font-family="Times,serif" font-size="14.00">gini = 0.0</text>
<text text-anchor="middle" x="176.768" y="-25" font-family="Times,serif" font-size="14.00">samples = 1</text>
<text text-anchor="middle" x="176.768" y="-8.2" font-family="Times,serif" font-size="14.00">value = [0, 1, 0]</text>
</g>
<!-- 6&#45;&gt;8 -->
<g id="edge8" class="edge"><title>6&#45;&gt;8</title>
<path fill="none" stroke="black" d="M137.327,-94.3237C142.78,-85.4578 148.61,-75.9786 154.07,-67.1024"/>
<polygon fill="black" stroke="black" points="157.12,-68.8237 159.378,-58.4722 151.158,-65.1563 157.12,-68.8237"/>
</g>
<!-- 11 -->
<g id="node12" class="node"><title>11</title>
<polygon fill="none" stroke="black" points="417.304,-280.9 312.231,-280.9 312.231,-205.5 417.304,-205.5 417.304,-280.9"/>
<text text-anchor="middle" x="364.768" y="-264.2" font-family="Times,serif" font-size="14.00">X[1] &lt;= 3.1</text>
<text text-anchor="middle" x="364.768" y="-247.4" font-family="Times,serif" font-size="14.00">gini = 0.375</text>
<text text-anchor="middle" x="364.768" y="-230.6" font-family="Times,serif" font-size="14.00">samples = 4</text>
<text text-anchor="middle" x="364.768" y="-213.8" font-family="Times,serif" font-size="14.00">value = [0, 1, 3]</text>
</g>
<!-- 10&#45;&gt;11 -->
<g id="edge11" class="edge"><title>10&#45;&gt;11</title>
<path fill="none" stroke="black" d="M366.096,-316.734C365.946,-308.541 365.785,-299.741 365.629,-291.196"/>
<polygon fill="black" stroke="black" points="369.124,-290.889 365.441,-280.955 362.125,-291.017 369.124,-290.889"/>
</g>
<!-- 14 -->
<g id="node15" class="node"><title>14</title>
<polygon fill="none" stroke="black" points="547.804,-272.601 435.731,-272.601 435.731,-213.799 547.804,-213.799 547.804,-272.601"/>
<text text-anchor="middle" x="491.768" y="-255.8" font-family="Times,serif" font-size="14.00">gini = 0.0</text>
<text text-anchor="middle" x="491.768" y="-239" font-family="Times,serif" font-size="14.00">samples = 34</text>
<text text-anchor="middle" x="491.768" y="-222.2" font-family="Times,serif" font-size="14.00">value = [0, 0, 34]</text>
</g>
<!-- 10&#45;&gt;14 -->
<g id="edge14" class="edge"><title>10&#45;&gt;14</title>
<path fill="none" stroke="black" d="M408.739,-316.734C422.494,-304.718 437.741,-291.398 451.377,-279.485"/>
<polygon fill="black" stroke="black" points="453.967,-281.87 459.196,-272.655 449.362,-276.598 453.967,-281.87"/>
</g>
<!-- 12 -->
<g id="node13" class="node"><title>12</title>
<polygon fill="none" stroke="black" points="416.304,-161.401 311.231,-161.401 311.231,-102.599 416.304,-102.599 416.304,-161.401"/>
<text text-anchor="middle" x="363.768" y="-144.6" font-family="Times,serif" font-size="14.00">gini = 0.0</text>
<text text-anchor="middle" x="363.768" y="-127.8" font-family="Times,serif" font-size="14.00">samples = 3</text>
<text text-anchor="middle" x="363.768" y="-111" font-family="Times,serif" font-size="14.00">value = [0, 0, 3]</text>
</g>
<!-- 11&#45;&gt;12 -->
<g id="edge12" class="edge"><title>11&#45;&gt;12</title>
<path fill="none" stroke="black" d="M364.432,-205.534C364.332,-194.641 364.223,-182.676 364.122,-171.66"/>
<polygon fill="black" stroke="black" points="367.62,-171.422 364.028,-161.455 360.62,-171.487 367.62,-171.422"/>
</g>
<!-- 13 -->
<g id="node14" class="node"><title>13</title>
<polygon fill="none" stroke="black" points="540.304,-161.401 435.231,-161.401 435.231,-102.599 540.304,-102.599 540.304,-161.401"/>
<text text-anchor="middle" x="487.768" y="-144.6" font-family="Times,serif" font-size="14.00">gini = 0.0</text>
<text text-anchor="middle" x="487.768" y="-127.8" font-family="Times,serif" font-size="14.00">samples = 1</text>
<text text-anchor="middle" x="487.768" y="-111" font-family="Times,serif" font-size="14.00">value = [0, 1, 0]</text>
</g>
<!-- 11&#45;&gt;13 -->
<g id="edge13" class="edge"><title>11&#45;&gt;13</title>
<path fill="none" stroke="black" d="M406.067,-205.534C419.602,-193.518 434.606,-180.198 448.023,-168.285"/>
<polygon fill="black" stroke="black" points="450.563,-170.711 455.717,-161.455 445.915,-165.477 450.563,-170.711"/>
</g>
</g>
</svg>
